<svg width="105" height="18" viewBox="0 0 105 18" fill="none" xmlns="http://www.w3.org/2000/svg">
<path d="M46.741 10.4051L48.6342 4.74355H51.7843L47.8132 14.1051L46.171 18H43.1732L45.2828 13.4257L41.7412 4.74355H44.8918L46.741 10.4051Z" fill="black"/>
<path d="M62.3016 0C60.4319 1.14303 59.1995 3.09631 59.1994 5.31432C59.1994 8.83757 62.3086 11.694 66.1435 11.694C67.2994 11.6939 68.3888 11.4325 69.3476 10.9734C67.9723 13.2016 65.369 14.7064 62.3818 14.7065C57.9612 14.7064 54.3775 11.414 54.3774 7.35262C54.3774 3.31573 57.9178 0.0396034 62.3016 0Z" fill="black"/>
<path fill-rule="evenodd" clip-rule="evenodd" d="M76.1511 4.53247C77.1184 4.53252 77.9837 4.74376 78.7474 5.1657C79.5111 5.58771 80.1162 6.16941 80.5617 6.91112C81.0072 7.64006 81.2298 8.46518 81.2299 9.38593C81.2299 10.3068 81.0072 11.1383 80.5617 11.8801C80.1161 12.6219 79.5111 13.21 78.7474 13.6449C77.9837 14.0668 77.1184 14.2781 76.1511 14.2781C75.1965 14.2781 74.3307 14.0669 73.5543 13.6449C72.7905 13.21 72.1855 12.6219 71.7399 11.8801C71.2944 11.1383 71.0718 10.3068 71.0718 9.38593C71.0718 8.46518 71.2944 7.64006 71.7399 6.91112C72.1855 6.18219 72.7906 5.60707 73.5543 5.18505C74.318 4.75026 75.1837 4.53247 76.1511 4.53247ZM76.1511 7.199C75.7438 7.199 75.3804 7.29505 75.0622 7.48689C74.744 7.66593 74.4957 7.92192 74.3175 8.25437C74.1394 8.58685 74.0503 8.97054 74.0503 9.40529C74.0503 9.82725 74.1394 10.2109 74.3175 10.5562C74.4957 10.8887 74.744 11.1512 75.0622 11.343C75.3804 11.5221 75.7438 11.6116 76.1511 11.6116C76.571 11.6115 76.94 11.522 77.2581 11.343C77.5763 11.1512 77.8186 10.8887 77.9841 10.5562C78.1622 10.2109 78.2514 9.82068 78.2514 9.38593C78.2513 8.95125 78.1622 8.57402 77.9841 8.25437C77.8059 7.92192 77.5576 7.66593 77.2395 7.48689C76.934 7.29509 76.5711 7.19905 76.1511 7.199Z" fill="black"/>
<path fill-rule="evenodd" clip-rule="evenodd" d="M100.322 4.53247C101.239 4.53248 102.047 4.73063 102.747 5.12698C103.447 5.5234 103.994 6.07356 104.389 6.77685C104.796 7.48025 105 8.2862 105 9.19421C105 9.36042 104.988 9.53949 104.962 9.73127C104.949 9.91032 104.917 10.1215 104.866 10.3645L98.2157 10.3801C98.2583 10.5305 98.3101 10.6729 98.3742 10.806C98.5779 11.1896 98.8582 11.4897 99.2146 11.7071C99.5837 11.9117 100.017 12.0144 100.513 12.0144C100.971 12.0144 101.385 11.9374 101.754 11.7839C102.123 11.6177 102.448 11.3749 102.728 11.0552L104.332 12.6663C103.874 13.2035 103.32 13.6067 102.67 13.8753C102.021 14.1438 101.309 14.2781 100.532 14.2781C99.5266 14.2781 98.6289 14.0735 97.8397 13.6642C97.0632 13.2422 96.4522 12.6599 96.0067 11.9182C95.5613 11.1765 95.3385 10.3388 95.3385 9.40529C95.3385 8.47168 95.5546 7.6401 95.9874 6.91112C96.433 6.1694 97.0315 5.58773 97.7825 5.1657C98.5335 4.74365 99.3802 4.53247 100.322 4.53247ZM100.341 6.77685C99.8832 6.77685 99.4818 6.88604 99.1381 7.10346C98.8072 7.30808 98.5465 7.60225 98.3556 7.98585C98.3006 8.10421 98.255 8.23071 98.217 8.3649L102.271 8.35366C102.231 8.17598 102.181 8.01454 102.117 7.87032C101.964 7.51232 101.735 7.24377 101.43 7.06474C101.137 6.87293 100.774 6.77689 100.341 6.77685Z" fill="black"/>
<path fill-rule="evenodd" clip-rule="evenodd" d="M17.416 4.55183C18.0397 4.55184 18.5996 4.67354 19.0961 4.91653C19.4301 5.07595 19.7224 5.27716 19.9743 5.51915V4.74355H22.8384V14.067H19.9743V13.3102C19.7303 13.542 19.4445 13.7376 19.1153 13.8947C18.6062 14.1376 18.0397 14.2587 17.416 14.2587C16.5631 14.2587 15.799 14.0476 15.1243 13.6255C14.4626 13.2035 13.9345 12.6282 13.54 11.8995C13.1581 11.1705 12.9669 10.3389 12.9669 9.40529C12.9669 8.47168 13.1581 7.6401 13.54 6.91112C13.9345 6.18237 14.4626 5.60703 15.1243 5.18505C15.799 4.76301 16.5631 4.55183 17.416 4.55183ZM18.027 7.199C17.6197 7.199 17.2569 7.29507 16.9386 7.48689C16.6331 7.66594 16.385 7.92185 16.194 8.25437C16.0158 8.58688 15.9267 8.97047 15.9267 9.40529C15.9267 9.82734 16.0158 10.2049 16.194 10.5375C16.3722 10.8699 16.6205 11.1319 16.9386 11.3237C17.2568 11.5155 17.6132 11.6116 18.0077 11.6116C18.6314 11.6116 19.1343 11.4069 19.5162 10.9977C19.8981 10.5757 20.0893 10.0448 20.0893 9.40529C20.0893 8.97054 20.0002 8.58685 19.822 8.25437C19.6565 7.92185 19.4143 7.66594 19.0961 7.48689C18.7906 7.2951 18.4342 7.19901 18.027 7.199Z" fill="black"/>
<path fill-rule="evenodd" clip-rule="evenodd" d="M92.9381 14.067H90.074V13.3801C89.8519 13.5678 89.6044 13.7338 89.3293 13.8753C88.8074 14.1311 88.2279 14.2587 87.5915 14.2587C86.7132 14.2587 85.9306 14.0475 85.2432 13.6255C84.5686 13.2035 84.0336 12.6284 83.639 11.8995C83.2571 11.1705 83.0659 10.3389 83.0659 9.40529C83.0659 8.47168 83.2571 7.6401 83.639 6.91112C84.0336 6.18222 84.5686 5.60706 85.2432 5.18505C85.9306 4.76306 86.7132 4.55184 87.5915 4.55183C88.2279 4.55183 88.8009 4.67353 89.3101 4.91653C89.569 5.03712 89.8048 5.18084 90.0168 5.34867V0.139259H92.9381V14.067ZM88.126 7.199C87.7187 7.19902 87.3559 7.29507 87.0377 7.48689C86.7322 7.67872 86.484 7.94123 86.293 8.27373C86.1149 8.60619 86.0258 8.98335 86.0258 9.40529C86.0258 9.82734 86.1148 10.2049 86.293 10.5375C86.4712 10.8699 86.7195 11.1319 87.0377 11.3237C87.3559 11.5155 87.7128 11.6116 88.1074 11.6116C88.5273 11.6115 88.8903 11.5221 89.1957 11.343C89.5012 11.1512 89.7429 10.8887 89.9211 10.5562C90.0992 10.2237 90.1883 9.84006 90.1883 9.40529C90.1883 8.97057 90.0992 8.59341 89.9211 8.27373C89.7556 7.94128 89.5138 7.67872 89.1957 7.48689C88.8902 7.29505 88.5334 7.199 88.126 7.199Z" fill="black"/>
<path d="M6.50644 9.66507L9.8529 0.523314H13.0222L7.77131 14.067H5.19372L0 0.523314H3.20785L6.50644 9.66507Z" fill="black"/>
<path d="M28.7718 14.067H25.8505V0.139259H28.7718V14.067Z" fill="black"/>
<path d="M34.7052 8.91382L37.7029 4.74355H40.968L37.5743 9.13863L41.1588 14.067H37.7222L34.7052 9.5739V14.067H31.7839V0.139259H34.7052V8.91382Z" fill="black"/>
</svg>
